<mxfile host="65bd71144e" pages="1">
    <diagram name="Page-1" id="74e2e168-ea6b-b213-b513-2b3c1d86103e">
        <mxGraphModel dx="1614" dy="1150" grid="0" gridSize="10" guides="1" tooltips="1" connect="1" arrows="1" fold="1" page="0" pageScale="1" pageWidth="1100" pageHeight="850" background="#E6E6E6" math="0" shadow="1">
            <root>
                <mxCell id="0"/>
                <mxCell id="1" parent="0"/>
                <mxCell id="77e6c97f196da883-1" value="单人补货流程" style="swimlane;html=1;childLayout=stackLayout;startSize=30;rounded=0;shadow=0;labelBackgroundColor=none;strokeWidth=1;fontFamily=Verdana;fontSize=8;align=center;" parent="1" vertex="1">
                    <mxGeometry x="70" y="60" width="1880" height="1940" as="geometry"/>
                </mxCell>
                <mxCell id="118" value="子流程" style="swimlane;html=1;startSize=20;" parent="77e6c97f196da883-1" vertex="1">
                    <mxGeometry y="30" width="270" height="1910" as="geometry"/>
                </mxCell>
                <mxCell id="119" value="巡仓补货" style="rounded=0;whiteSpace=wrap;html=1;" parent="118" vertex="1">
                    <mxGeometry x="70" y="255" width="130" height="80" as="geometry"/>
                </mxCell>
                <mxCell id="120" value="预补方式" style="rounded=0;whiteSpace=wrap;html=1;sketch=0;" parent="118" vertex="1">
                    <mxGeometry x="70" y="150" width="130" height="80" as="geometry"/>
                </mxCell>
                <mxCell id="121" value="&lt;span style=&quot;text-align: left&quot;&gt;自动获取货位信息&lt;br&gt;（单人、协同、整车）&lt;/span&gt;" style="rounded=0;whiteSpace=wrap;html=1;sketch=0;" parent="118" vertex="1">
                    <mxGeometry x="70" y="40" width="130" height="80" as="geometry"/>
                </mxCell>
                <mxCell id="129" value="&lt;h4 id=&quot;wmsstockshelvecheckdowngoods-扫描货位进行下架时进行检查&quot; style=&quot;box-sizing: border-box ; margin-top: 24px ; margin-bottom: 16px ; font-size: 1.25em ; line-height: 1.25 ; color: rgb(36 , 41 , 46) ; font-family: , &amp;#34;blinkmacsystemfont&amp;#34; , , &amp;#34;pingfang sc&amp;#34; , &amp;#34;helvetica&amp;#34; , &amp;#34;arial&amp;#34; , &amp;#34;hiragino sans gb&amp;#34; , &amp;#34;microsoft yahei&amp;#34; , &amp;#34;simsun&amp;#34; , , &amp;#34;heiti&amp;#34; , , sans-serif&quot;&gt;&lt;span style=&quot;font-weight: normal&quot;&gt;扫描货位进行下架时进行检查&lt;/span&gt;&lt;/h4&gt;" style="whiteSpace=wrap;html=1;rounded=0;sketch=0;align=center;" parent="118" vertex="1">
                    <mxGeometry x="75" y="360" width="120" height="60" as="geometry"/>
                </mxCell>
                <mxCell id="133" value="&lt;span style=&quot;color: rgb(36, 41, 46); font-size: 14px;&quot;&gt;对PDA传递的货品货位库存进行校验看看是否还满足所需要的数量&lt;/span&gt;&lt;br&gt;&lt;br&gt;" style="whiteSpace=wrap;html=1;rounded=0;sketch=0;align=center;" parent="118" vertex="1">
                    <mxGeometry x="55" y="460" width="160" height="70" as="geometry"/>
                </mxCell>
                <mxCell id="134" value="" style="edgeStyle=orthogonalEdgeStyle;curved=0;rounded=1;sketch=0;orthogonalLoop=1;jettySize=auto;html=1;fontSize=10;" parent="118" source="129" target="133" edge="1">
                    <mxGeometry relative="1" as="geometry"/>
                </mxCell>
                <mxCell id="135" value="&lt;span style=&quot;color: rgb(36 , 41 , 46) ; font-family: , &amp;#34;blinkmacsystemfont&amp;#34; , , &amp;#34;pingfang sc&amp;#34; , &amp;#34;helvetica&amp;#34; , &amp;#34;arial&amp;#34; , &amp;#34;hiragino sans gb&amp;#34; , &amp;#34;microsoft yahei&amp;#34; , &amp;#34;simsun&amp;#34; , , &amp;#34;heiti&amp;#34; , , sans-serif ; font-size: 14px ; text-align: left&quot;&gt;通过对应传递的信息创建补货模式为通用模式的补货单如果是第二次操作邹更新操作&lt;/span&gt;" style="whiteSpace=wrap;html=1;rounded=0;sketch=0;align=center;" parent="118" vertex="1">
                    <mxGeometry x="55" y="570" width="160" height="70" as="geometry"/>
                </mxCell>
                <mxCell id="136" value="" style="edgeStyle=orthogonalEdgeStyle;curved=0;rounded=1;sketch=0;orthogonalLoop=1;jettySize=auto;html=1;fontSize=10;" parent="118" source="133" target="135" edge="1">
                    <mxGeometry relative="1" as="geometry"/>
                </mxCell>
                <mxCell id="139" value="&lt;ul style=&quot;box-sizing: border-box ; padding-left: 2em ; margin-top: 0px ; margin-bottom: 16px ; color: rgb(36 , 41 , 46) ; font-family: , &amp;#34;blinkmacsystemfont&amp;#34; , , &amp;#34;pingfang sc&amp;#34; , &amp;#34;helvetica&amp;#34; , &amp;#34;arial&amp;#34; , &amp;#34;hiragino sans gb&amp;#34; , &amp;#34;microsoft yahei&amp;#34; , &amp;#34;simsun&amp;#34; , , &amp;#34;heiti&amp;#34; , , sans-serif ; font-size: 14px&quot;&gt;&lt;li style=&quot;box-sizing: border-box ; margin-top: 0.25em&quot;&gt;更改对应默认货位的上架中的数量&lt;/li&gt;&lt;li style=&quot;box-sizing: border-box ; margin-top: 0.25em&quot;&gt;降低对应默认货位的补货级别更改为最低&lt;/li&gt;&lt;/ul&gt;" style="whiteSpace=wrap;html=1;rounded=0;sketch=0;align=center;" parent="118" vertex="1">
                    <mxGeometry x="30" y="680" width="210" height="100" as="geometry"/>
                </mxCell>
                <mxCell id="140" value="" style="edgeStyle=orthogonalEdgeStyle;curved=0;rounded=1;sketch=0;orthogonalLoop=1;jettySize=auto;html=1;fontSize=10;" parent="118" source="135" target="139" edge="1">
                    <mxGeometry relative="1" as="geometry"/>
                </mxCell>
                <mxCell id="141" value="&lt;span style=&quot;color: rgb(36 , 41 , 46) ; font-family: , &amp;#34;blinkmacsystemfont&amp;#34; , , &amp;#34;pingfang sc&amp;#34; , &amp;#34;helvetica&amp;#34; , &amp;#34;arial&amp;#34; , &amp;#34;hiragino sans gb&amp;#34; , &amp;#34;microsoft yahei&amp;#34; , &amp;#34;simsun&amp;#34; , , &amp;#34;heiti&amp;#34; , , sans-serif ; font-size: 14px ; text-align: left&quot;&gt;进行移位操作&lt;br&gt;&lt;/span&gt;&lt;span style=&quot;color: rgb(36 , 41 , 46) ; font-family: , &amp;#34;blinkmacsystemfont&amp;#34; , , &amp;#34;pingfang sc&amp;#34; , &amp;#34;helvetica&amp;#34; , &amp;#34;arial&amp;#34; , &amp;#34;hiragino sans gb&amp;#34; , &amp;#34;microsoft yahei&amp;#34; , &amp;#34;simsun&amp;#34; , , &amp;#34;heiti&amp;#34; , , sans-serif ; font-size: 14px ; text-align: left&quot;&gt;造一个虚拟移位单&lt;br&gt;&lt;/span&gt;&lt;span style=&quot;color: rgb(36 , 41 , 46) ; font-family: , &amp;#34;blinkmacsystemfont&amp;#34; , , &amp;#34;pingfang sc&amp;#34; , &amp;#34;helvetica&amp;#34; , &amp;#34;arial&amp;#34; , &amp;#34;hiragino sans gb&amp;#34; , &amp;#34;microsoft yahei&amp;#34; , &amp;#34;simsun&amp;#34; , , &amp;#34;heiti&amp;#34; , , sans-serif ; font-size: 14px ; text-align: left&quot;&gt;从备货区对应的货位到补货暂存&lt;br&gt;&lt;/span&gt;" style="whiteSpace=wrap;html=1;rounded=0;sketch=0;" parent="118" vertex="1">
                    <mxGeometry x="35" y="840" width="200" height="100" as="geometry"/>
                </mxCell>
                <mxCell id="142" value="" style="edgeStyle=orthogonalEdgeStyle;curved=0;rounded=1;sketch=0;orthogonalLoop=1;jettySize=auto;html=1;fontSize=10;" parent="118" source="139" target="141" edge="1">
                    <mxGeometry relative="1" as="geometry"/>
                </mxCell>
                <mxCell id="157" value="判断补货单明细中的上架数量和下架数量如果下架数量大于上架数量更改当前补货单状态为待放回" style="whiteSpace=wrap;html=1;rounded=0;sketch=0;" parent="118" vertex="1">
                    <mxGeometry x="40" y="990" width="210" height="70" as="geometry"/>
                </mxCell>
                <mxCell id="159" value="&lt;div&gt;如果货品全部上架成功&lt;/div&gt;&lt;div&gt;更改对应的补货单状态为已完成并且记录补货员绩效&lt;/div&gt;" style="whiteSpace=wrap;html=1;rounded=0;sketch=0;" parent="118" vertex="1">
                    <mxGeometry x="55" y="1145" width="155" height="115" as="geometry"/>
                </mxCell>
                <mxCell id="160" value="" style="edgeStyle=orthogonalEdgeStyle;curved=0;rounded=1;sketch=0;orthogonalLoop=1;jettySize=auto;html=1;fontSize=10;" parent="118" source="157" target="159" edge="1">
                    <mxGeometry relative="1" as="geometry">
                        <Array as="points">
                            <mxPoint x="133" y="1090"/>
                            <mxPoint x="133" y="1090"/>
                        </Array>
                    </mxGeometry>
                </mxCell>
                <mxCell id="77e6c97f196da883-2" value="子流程" style="swimlane;html=1;startSize=20;" parent="77e6c97f196da883-1" vertex="1">
                    <mxGeometry x="270" y="30" width="250" height="1910" as="geometry"/>
                </mxCell>
                <mxCell id="145" value="判断补货暂存数量是否满足当前上架的数量" style="whiteSpace=wrap;html=1;rounded=0;sketch=0;" parent="77e6c97f196da883-2" vertex="1">
                    <mxGeometry x="50" y="495" width="130" height="70" as="geometry"/>
                </mxCell>
                <mxCell id="147" value="对应补货单中的上架数量不能够超过默认货位的上架中的数量" style="whiteSpace=wrap;html=1;rounded=0;sketch=0;" parent="77e6c97f196da883-2" vertex="1">
                    <mxGeometry x="55" y="650" width="120" height="60" as="geometry"/>
                </mxCell>
                <mxCell id="148" value="" style="edgeStyle=orthogonalEdgeStyle;curved=0;rounded=1;sketch=0;orthogonalLoop=1;jettySize=auto;html=1;fontSize=10;" parent="77e6c97f196da883-2" source="145" target="147" edge="1">
                    <mxGeometry relative="1" as="geometry"/>
                </mxCell>
                <mxCell id="149" value="更新补货单明细中对应的上架数量和下架数量" style="whiteSpace=wrap;html=1;rounded=0;sketch=0;" parent="77e6c97f196da883-2" vertex="1">
                    <mxGeometry x="55" y="790" width="120" height="60" as="geometry"/>
                </mxCell>
                <mxCell id="150" value="" style="edgeStyle=orthogonalEdgeStyle;curved=0;rounded=1;sketch=0;orthogonalLoop=1;jettySize=auto;html=1;fontSize=10;" parent="77e6c97f196da883-2" source="147" target="149" edge="1">
                    <mxGeometry relative="1" as="geometry"/>
                </mxCell>
                <mxCell id="151" value="创建虚拟移位单执行移位操作&lt;br&gt;&lt;div style=&quot;box-sizing: border-box ; display: inline-block&quot;&gt;补货暂存移位到&lt;/div&gt;&lt;div style=&quot;box-sizing: border-box ; display: inline-block&quot;&gt;对应的默认货位&lt;/div&gt;" style="whiteSpace=wrap;html=1;rounded=0;sketch=0;" parent="77e6c97f196da883-2" vertex="1">
                    <mxGeometry x="55" y="940" width="120" height="60" as="geometry"/>
                </mxCell>
                <mxCell id="152" value="" style="edgeStyle=orthogonalEdgeStyle;curved=0;rounded=1;sketch=0;orthogonalLoop=1;jettySize=auto;html=1;fontSize=10;" parent="77e6c97f196da883-2" source="149" target="151" edge="1">
                    <mxGeometry relative="1" as="geometry"/>
                </mxCell>
                <mxCell id="153" value="更新默认货位上上架中的数量（上架中数量 = 原有上架中数量 - 实际上架数量）" style="whiteSpace=wrap;html=1;rounded=0;sketch=0;" parent="77e6c97f196da883-2" vertex="1">
                    <mxGeometry x="55" y="1090" width="120" height="80" as="geometry"/>
                </mxCell>
                <mxCell id="154" value="" style="edgeStyle=orthogonalEdgeStyle;curved=0;rounded=1;sketch=0;orthogonalLoop=1;jettySize=auto;html=1;fontSize=10;" parent="77e6c97f196da883-2" source="151" target="153" edge="1">
                    <mxGeometry relative="1" as="geometry"/>
                </mxCell>
                <mxCell id="163" value="获取到补货单详细中需要放回的货品（补货单详细中下架数量大于上架数量的货品）" style="whiteSpace=wrap;html=1;rounded=0;sketch=0;" parent="77e6c97f196da883-2" vertex="1">
                    <mxGeometry x="10" y="1310" width="210" height="80" as="geometry"/>
                </mxCell>
                <mxCell id="165" value="&lt;span style=&quot;color: rgb(36 , 41 , 46) ; font-family: , &amp;#34;blinkmacsystemfont&amp;#34; , , &amp;#34;pingfang sc&amp;#34; , &amp;#34;helvetica&amp;#34; , &amp;#34;arial&amp;#34; , &amp;#34;hiragino sans gb&amp;#34; , &amp;#34;microsoft yahei&amp;#34; , &amp;#34;simsun&amp;#34; , , &amp;#34;heiti&amp;#34; , , sans-serif ; font-size: 14px ; text-align: left&quot;&gt;对需要待放回的货品进行虚拟移位操作&lt;br&gt;&lt;/span&gt;&lt;div style=&quot;box-sizing: border-box ; display: inline-block&quot;&gt;补货暂存&lt;/div&gt;&lt;div style=&quot;box-sizing: border-box ; display: inline-block&quot;&gt;备货区一开始下架的货位&lt;/div&gt;&lt;span style=&quot;color: rgb(36 , 41 , 46) ; font-family: , &amp;#34;blinkmacsystemfont&amp;#34; , , &amp;#34;pingfang sc&amp;#34; , &amp;#34;helvetica&amp;#34; , &amp;#34;arial&amp;#34; , &amp;#34;hiragino sans gb&amp;#34; , &amp;#34;microsoft yahei&amp;#34; , &amp;#34;simsun&amp;#34; , , &amp;#34;heiti&amp;#34; , , sans-serif ; font-size: 14px ; text-align: left&quot;&gt;&lt;br&gt;&lt;/span&gt;" style="whiteSpace=wrap;html=1;rounded=0;sketch=0;" parent="77e6c97f196da883-2" vertex="1">
                    <mxGeometry x="52.5" y="1470" width="125" height="90" as="geometry"/>
                </mxCell>
                <mxCell id="166" value="" style="edgeStyle=orthogonalEdgeStyle;curved=0;rounded=1;sketch=0;orthogonalLoop=1;jettySize=auto;html=1;fontSize=10;" parent="77e6c97f196da883-2" source="163" target="165" edge="1">
                    <mxGeometry relative="1" as="geometry"/>
                </mxCell>
                <mxCell id="167" value="&lt;div&gt;更改对应的补货单为已完成&lt;/div&gt;&lt;div&gt;记录补货绩效&lt;/div&gt;&lt;div&gt;更新默认拣货货位的上架中的数量更改为实际数量&lt;/div&gt;" style="whiteSpace=wrap;html=1;rounded=0;sketch=0;" parent="77e6c97f196da883-2" vertex="1">
                    <mxGeometry x="30.630000000000003" y="1640" width="168.75" height="80" as="geometry"/>
                </mxCell>
                <mxCell id="168" value="" style="edgeStyle=orthogonalEdgeStyle;curved=0;rounded=1;sketch=0;orthogonalLoop=1;jettySize=auto;html=1;fontSize=10;" parent="77e6c97f196da883-2" source="165" target="167" edge="1">
                    <mxGeometry relative="1" as="geometry"/>
                </mxCell>
                <mxCell id="77e6c97f196da883-3" value="" style="swimlane;html=1;startSize=20;" parent="77e6c97f196da883-1" vertex="1">
                    <mxGeometry x="520" y="30" width="300" height="1910" as="geometry"/>
                </mxCell>
                <mxCell id="6" value="&lt;h3 id=&quot;wmsstockshelvefetchsupplygoods-获取需补货货品&quot; style=&quot;box-sizing: border-box ; margin-top: 24px ; margin-bottom: 16px ; font-size: 1.5em ; line-height: 1.25 ; color: rgb(36 , 41 , 46) ; font-family: , &amp;#34;blinkmacsystemfont&amp;#34; , , &amp;#34;pingfang sc&amp;#34; , &amp;#34;helvetica&amp;#34; , &amp;#34;arial&amp;#34; , &amp;#34;hiragino sans gb&amp;#34; , &amp;#34;microsoft yahei&amp;#34; , &amp;#34;simsun&amp;#34; , , &amp;#34;heiti&amp;#34; , , sans-serif&quot;&gt;&lt;span class=&quot;Apple-converted-space&quot;&gt;&amp;nbsp;&lt;/span&gt;获取需补货货品&lt;/h3&gt;" style="rounded=0;whiteSpace=wrap;html=1;sketch=0;" parent="77e6c97f196da883-3" vertex="1">
                    <mxGeometry x="75" y="160" width="150" height="60" as="geometry"/>
                </mxCell>
                <mxCell id="63" value="&lt;h3 id=&quot;下架货品操作&quot; style=&quot;box-sizing: border-box ; margin-top: 24px ; margin-bottom: 16px ; font-size: 1.5em ; line-height: 1.25 ; color: rgb(36 , 41 , 46) ; font-family: , &amp;#34;blinkmacsystemfont&amp;#34; , , &amp;#34;pingfang sc&amp;#34; , &amp;#34;helvetica&amp;#34; , &amp;#34;arial&amp;#34; , &amp;#34;hiragino sans gb&amp;#34; , &amp;#34;microsoft yahei&amp;#34; , &amp;#34;simsun&amp;#34; , , &amp;#34;heiti&amp;#34; , , sans-serif&quot;&gt;下架货品操作&lt;/h3&gt;" style="whiteSpace=wrap;html=1;rounded=0;sketch=0;" parent="77e6c97f196da883-3" vertex="1">
                    <mxGeometry x="100" y="360" width="120" height="60" as="geometry"/>
                </mxCell>
                <mxCell id="64" value="" style="edgeStyle=orthogonalEdgeStyle;curved=0;rounded=1;sketch=0;orthogonalLoop=1;jettySize=auto;html=1;fontSize=10;" parent="77e6c97f196da883-3" source="6" target="63" edge="1">
                    <mxGeometry relative="1" as="geometry"/>
                </mxCell>
                <mxCell id="172" style="edgeStyle=orthogonalEdgeStyle;curved=0;rounded=1;sketch=0;orthogonalLoop=1;jettySize=auto;html=1;exitX=0.5;exitY=1;exitDx=0;exitDy=0;entryX=0.5;entryY=0;entryDx=0;entryDy=0;fontSize=10;" parent="77e6c97f196da883-3" source="170" target="6" edge="1">
                    <mxGeometry relative="1" as="geometry"/>
                </mxCell>
                <mxCell id="170" value="&lt;font style=&quot;font-size: 22px&quot;&gt;&lt;b&gt;开始&lt;/b&gt;&lt;/font&gt;" style="ellipse;whiteSpace=wrap;html=1;rounded=0;sketch=0;" parent="77e6c97f196da883-3" vertex="1">
                    <mxGeometry x="90" y="40" width="120" height="80" as="geometry"/>
                </mxCell>
                <mxCell id="77e6c97f196da883-6" value="子流程" style="swimlane;html=1;startSize=20;" parent="77e6c97f196da883-1" vertex="1">
                    <mxGeometry x="820" y="30" width="270" height="1910" as="geometry">
                        <mxRectangle x="960" y="30" width="30" height="1180" as="alternateBounds"/>
                    </mxGeometry>
                </mxCell>
                <mxCell id="39" style="edgeStyle=orthogonalEdgeStyle;curved=0;rounded=1;sketch=0;orthogonalLoop=1;jettySize=auto;html=1;exitX=0.5;exitY=1;exitDx=0;exitDy=0;entryX=0.5;entryY=0;entryDx=0;entryDy=0;fontSize=10;" parent="77e6c97f196da883-6" source="30" target="38" edge="1">
                    <mxGeometry relative="1" as="geometry"/>
                </mxCell>
                <mxCell id="30" value="&lt;span style=&quot;font-size: 12px&quot;&gt;货区校验&lt;/span&gt;" style="rounded=0;whiteSpace=wrap;html=1;labelBackgroundColor=none;sketch=0;fontSize=1;" parent="77e6c97f196da883-6" vertex="1">
                    <mxGeometry x="75" y="120" width="105" height="40" as="geometry"/>
                </mxCell>
                <mxCell id="42" style="edgeStyle=orthogonalEdgeStyle;curved=0;rounded=1;sketch=0;orthogonalLoop=1;jettySize=auto;html=1;exitX=0.5;exitY=1;exitDx=0;exitDy=0;entryX=0.5;entryY=0;entryDx=0;entryDy=0;fontSize=10;" parent="77e6c97f196da883-6" source="38" target="41" edge="1">
                    <mxGeometry relative="1" as="geometry"/>
                </mxCell>
                <mxCell id="38" value="货位上的实际库存加上上架中的数量必须小于等于警戒容量&lt;br&gt;或补货级别大于0&lt;br&gt;且默认货位补货标记处于正常补货状态" style="rounded=0;whiteSpace=wrap;html=1;labelBackgroundColor=none;sketch=0;fontSize=10;" parent="77e6c97f196da883-6" vertex="1">
                    <mxGeometry x="51.25" y="180" width="152.5" height="70" as="geometry"/>
                </mxCell>
                <mxCell id="45" style="edgeStyle=orthogonalEdgeStyle;curved=0;rounded=1;sketch=0;orthogonalLoop=1;jettySize=auto;html=1;exitX=0;exitY=1;exitDx=0;exitDy=0;entryX=0.5;entryY=0;entryDx=0;entryDy=0;fontSize=10;" parent="77e6c97f196da883-6" source="41" target="43" edge="1">
                    <mxGeometry relative="1" as="geometry">
                        <Array as="points">
                            <mxPoint x="108" y="380"/>
                            <mxPoint x="70" y="380"/>
                        </Array>
                    </mxGeometry>
                </mxCell>
                <mxCell id="47" value="&lt;span style=&quot;background-color: rgb(255 , 255 , 255)&quot;&gt;是&lt;/span&gt;" style="edgeLabel;html=1;align=center;verticalAlign=middle;resizable=0;points=[];fontSize=10;" parent="45" vertex="1" connectable="0">
                    <mxGeometry x="-0.0514" y="-1" relative="1" as="geometry">
                        <mxPoint x="1" as="offset"/>
                    </mxGeometry>
                </mxCell>
                <mxCell id="46" style="edgeStyle=orthogonalEdgeStyle;curved=0;rounded=1;sketch=0;orthogonalLoop=1;jettySize=auto;html=1;exitX=1;exitY=1;exitDx=0;exitDy=0;fontSize=10;" parent="77e6c97f196da883-6" source="41" target="44" edge="1">
                    <mxGeometry relative="1" as="geometry">
                        <Array as="points">
                            <mxPoint x="148" y="380"/>
                            <mxPoint x="200" y="380"/>
                        </Array>
                    </mxGeometry>
                </mxCell>
                <mxCell id="48" value="&lt;span style=&quot;background-color: rgb(255 , 255 , 255)&quot;&gt;否&lt;/span&gt;" style="edgeLabel;html=1;align=center;verticalAlign=middle;resizable=0;points=[];fontSize=10;" parent="46" vertex="1" connectable="0">
                    <mxGeometry x="-0.1317" y="-3" relative="1" as="geometry">
                        <mxPoint x="5" y="-3" as="offset"/>
                    </mxGeometry>
                </mxCell>
                <mxCell id="41" value="&lt;span&gt;查找是否波次补货&lt;/span&gt;" style="rhombus;whiteSpace=wrap;html=1;rounded=0;labelBackgroundColor=none;sketch=0;fontSize=10;" parent="77e6c97f196da883-6" vertex="1">
                    <mxGeometry x="87.5" y="290" width="80" height="80" as="geometry"/>
                </mxCell>
                <mxCell id="43" value="&lt;div style=&quot;box-sizing: border-box ; display: inline-block&quot;&gt;取对应设置波次长度的波次补货货品&lt;br&gt;&lt;br&gt;&lt;/div&gt;" style="rounded=0;whiteSpace=wrap;html=1;labelBackgroundColor=none;sketch=0;fontSize=10;" parent="77e6c97f196da883-6" vertex="1">
                    <mxGeometry x="10" y="400" width="120" height="60" as="geometry"/>
                </mxCell>
                <mxCell id="44" value="&lt;div style=&quot;box-sizing: border-box ; display: inline-block&quot;&gt;遍历需要补货的默认货位取100条补货货品&lt;br&gt;&lt;br&gt;&lt;/div&gt;" style="rounded=0;whiteSpace=wrap;html=1;labelBackgroundColor=none;sketch=0;fontSize=10;" parent="77e6c97f196da883-6" vertex="1">
                    <mxGeometry x="140" y="400" width="120" height="60" as="geometry"/>
                </mxCell>
                <mxCell id="49" value="&lt;div style=&quot;box-sizing: border-box ; display: inline-block&quot;&gt;查找需补货货品现有备货区库存明细&lt;br&gt;&lt;br&gt;&lt;/div&gt;" style="whiteSpace=wrap;html=1;rounded=0;fontSize=10;sketch=0;" parent="77e6c97f196da883-6" vertex="1">
                    <mxGeometry x="75" y="540" width="120" height="40" as="geometry"/>
                </mxCell>
                <mxCell id="50" value="" style="edgeStyle=orthogonalEdgeStyle;curved=0;rounded=1;sketch=0;orthogonalLoop=1;jettySize=auto;html=1;fontSize=10;" parent="77e6c97f196da883-6" source="43" target="49" edge="1">
                    <mxGeometry relative="1" as="geometry"/>
                </mxCell>
                <mxCell id="52" value="" style="edgeStyle=orthogonalEdgeStyle;curved=0;rounded=1;sketch=0;orthogonalLoop=1;jettySize=auto;html=1;fontSize=10;entryX=0.5;entryY=0;entryDx=0;entryDy=0;" parent="77e6c97f196da883-6" source="44" target="49" edge="1">
                    <mxGeometry relative="1" as="geometry">
                        <mxPoint x="200" y="540" as="targetPoint"/>
                    </mxGeometry>
                </mxCell>
                <mxCell id="53" value="&lt;div style=&quot;box-sizing: border-box ; display: inline-block&quot;&gt;&lt;div style=&quot;box-sizing: border-box ; display: inline-block&quot;&gt;对库存明细进行排序（先进先出）&lt;/div&gt;&lt;br&gt;&lt;/div&gt;" style="whiteSpace=wrap;html=1;rounded=0;fontSize=10;sketch=0;" parent="77e6c97f196da883-6" vertex="1">
                    <mxGeometry x="75" y="620" width="120" height="40" as="geometry"/>
                </mxCell>
                <mxCell id="54" value="" style="edgeStyle=orthogonalEdgeStyle;curved=0;rounded=1;sketch=0;orthogonalLoop=1;jettySize=auto;html=1;fontSize=10;" parent="77e6c97f196da883-6" source="49" target="53" edge="1">
                    <mxGeometry relative="1" as="geometry"/>
                </mxCell>
                <mxCell id="55" value="&lt;div style=&quot;box-sizing: border-box ; display: inline-block&quot;&gt;&lt;div style=&quot;box-sizing: border-box ; display: inline-block&quot;&gt;查找到备选货位:对应的货品备货区的空货位进行填充&lt;br&gt;&lt;/div&gt;&lt;br&gt;&lt;/div&gt;" style="whiteSpace=wrap;html=1;rounded=0;fontSize=10;sketch=0;" parent="77e6c97f196da883-6" vertex="1">
                    <mxGeometry x="75" y="690" width="120" height="40" as="geometry"/>
                </mxCell>
                <mxCell id="56" value="" style="edgeStyle=orthogonalEdgeStyle;curved=0;rounded=1;sketch=0;orthogonalLoop=1;jettySize=auto;html=1;fontSize=10;" parent="77e6c97f196da883-6" source="53" target="55" edge="1">
                    <mxGeometry relative="1" as="geometry"/>
                </mxCell>
                <mxCell id="57" value="&lt;div style=&quot;box-sizing: border-box ; display: inline-block&quot;&gt;波次补货 将对应的操作员id登记到对应的默认货位上&lt;br&gt;&lt;br&gt;&lt;/div&gt;" style="whiteSpace=wrap;html=1;rounded=0;fontSize=10;sketch=0;" parent="77e6c97f196da883-6" vertex="1">
                    <mxGeometry x="75" y="770" width="120" height="60" as="geometry"/>
                </mxCell>
                <mxCell id="58" value="" style="edgeStyle=orthogonalEdgeStyle;curved=0;rounded=1;sketch=0;orthogonalLoop=1;jettySize=auto;html=1;fontSize=10;" parent="77e6c97f196da883-6" source="55" target="57" edge="1">
                    <mxGeometry relative="1" as="geometry"/>
                </mxCell>
                <mxCell id="59" value="&lt;font style=&quot;font-size: 10px&quot;&gt;&lt;span style=&quot;color: rgb(36 , 41 , 46)&quot;&gt;对获取到的数据&lt;/span&gt;&lt;span style=&quot;color: rgb(36 , 41 , 46)&quot;&gt;按照影响单据&lt;/span&gt;&lt;span style=&quot;color: rgb(36 , 41 , 46)&quot;&gt;&lt;br&gt;进行排序&lt;/span&gt;&lt;/font&gt;" style="whiteSpace=wrap;html=1;rounded=0;fontSize=10;sketch=0;" parent="77e6c97f196da883-6" vertex="1">
                    <mxGeometry x="75" y="860" width="120" height="60" as="geometry"/>
                </mxCell>
                <mxCell id="60" value="" style="edgeStyle=orthogonalEdgeStyle;curved=0;rounded=1;sketch=0;orthogonalLoop=1;jettySize=auto;html=1;fontSize=10;" parent="77e6c97f196da883-6" source="57" target="59" edge="1">
                    <mxGeometry relative="1" as="geometry"/>
                </mxCell>
                <mxCell id="62" style="edgeStyle=orthogonalEdgeStyle;curved=0;rounded=1;sketch=0;orthogonalLoop=1;jettySize=auto;html=1;entryX=0.5;entryY=0;entryDx=0;entryDy=0;fontSize=10;" parent="77e6c97f196da883-6" source="61" target="30" edge="1">
                    <mxGeometry relative="1" as="geometry">
                        <Array as="points">
                            <mxPoint x="129" y="100"/>
                            <mxPoint x="128" y="100"/>
                        </Array>
                    </mxGeometry>
                </mxCell>
                <mxCell id="61" value="获取到待补货品" style="rounded=0;whiteSpace=wrap;html=1;sketch=0;" parent="77e6c97f196da883-6" vertex="1">
                    <mxGeometry x="57.5" y="30" width="132.5" height="50" as="geometry"/>
                </mxCell>
                <mxCell id="24" value="&lt;font style=&quot;font-size: 10px&quot;&gt;方法&lt;/font&gt;" style="swimlane;html=1;startSize=20;fontSize=1;" parent="77e6c97f196da883-1" vertex="1">
                    <mxGeometry x="1090" y="30" width="410" height="1910" as="geometry">
                        <mxRectangle x="960" y="30" width="30" height="1180" as="alternateBounds"/>
                    </mxGeometry>
                </mxCell>
                <mxCell id="29" value="&lt;pre style=&quot;color: rgb(169 , 183 , 198) ; font-family: &amp;#34;jetbrains mono&amp;#34; , monospace ; font-size: 10.5pt&quot;&gt;&lt;h3 id=&quot;wmsstockshelvefetchsupplygoods-获取需补货货品&quot; style=&quot;box-sizing: border-box ; margin-top: 24px ; margin-bottom: 16px ; font-size: 1.5em ; line-height: 1.25 ; color: rgb(36 , 41 , 46) ; font-family: , &amp;#34;blinkmacsystemfont&amp;#34; , , &amp;#34;pingfang sc&amp;#34; , &amp;#34;helvetica&amp;#34; , &amp;#34;arial&amp;#34; , &amp;#34;hiragino sans gb&amp;#34; , &amp;#34;microsoft yahei&amp;#34; , &amp;#34;simsun&amp;#34; , , &amp;#34;heiti&amp;#34; , , sans-serif&quot;&gt;wms.StockShelve.fetchSupplyGoods&lt;/h3&gt;&lt;h3 id=&quot;wmsstockshelvefetchsupplygoods-获取需补货货品&quot; style=&quot;box-sizing: border-box ; margin-top: 24px ; margin-bottom: 16px ; font-size: 1.5em ; line-height: 1.25 ; color: rgb(36 , 41 , 46) ; font-family: , &amp;#34;blinkmacsystemfont&amp;#34; , , &amp;#34;pingfang sc&amp;#34; , &amp;#34;helvetica&amp;#34; , &amp;#34;arial&amp;#34; , &amp;#34;hiragino sans gb&amp;#34; , &amp;#34;microsoft yahei&amp;#34; , &amp;#34;simsun&amp;#34; , , &amp;#34;heiti&amp;#34; , , sans-serif&quot;&gt;获取需补货货品&lt;/h3&gt;&lt;/pre&gt;" style="rounded=0;whiteSpace=wrap;html=1;labelBackgroundColor=none;sketch=0;" parent="24" vertex="1">
                    <mxGeometry x="30" y="175" width="360" height="95" as="geometry"/>
                </mxCell>
                <mxCell id="177" value="&lt;h4 id=&quot;wmsstockshelvecheckdowngoods-扫描货位进行下架时进行检查&quot; style=&quot;box-sizing: border-box ; margin-top: 24px ; margin-bottom: 16px ; font-size: 1.25em ; line-height: 1.25 ; color: rgb(36 , 41 , 46) ; font-family: , &amp;#34;blinkmacsystemfont&amp;#34; , , &amp;#34;pingfang sc&amp;#34; , &amp;#34;helvetica&amp;#34; , &amp;#34;arial&amp;#34; , &amp;#34;hiragino sans gb&amp;#34; , &amp;#34;microsoft yahei&amp;#34; , &amp;#34;simsun&amp;#34; , , &amp;#34;heiti&amp;#34; , , sans-serif&quot;&gt;wms.StockShelve.checkDownGoods&lt;span class=&quot;Apple-converted-space&quot;&gt;&amp;nbsp;&lt;/span&gt;&lt;/h4&gt;&lt;div&gt;&lt;span class=&quot;Apple-converted-space&quot;&gt;&lt;h4 id=&quot;wmsstockshelvecheckdowngoods-扫描货位进行下架时进行检查&quot; style=&quot;box-sizing: border-box ; margin-top: 24px ; margin-bottom: 16px ; font-size: 1.25em ; line-height: 1.25 ; color: rgb(36 , 41 , 46) ; font-family: , &amp;#34;blinkmacsystemfont&amp;#34; , , &amp;#34;pingfang sc&amp;#34; , &amp;#34;helvetica&amp;#34; , &amp;#34;arial&amp;#34; , &amp;#34;hiragino sans gb&amp;#34; , &amp;#34;microsoft yahei&amp;#34; , &amp;#34;simsun&amp;#34; , , &amp;#34;heiti&amp;#34; , , sans-serif&quot;&gt;扫描货位进行下架时进行检查&lt;/h4&gt;&lt;/span&gt;&lt;/div&gt;" style="whiteSpace=wrap;html=1;rounded=0;sketch=0;" parent="24" vertex="1">
                    <mxGeometry x="30" y="310" width="340" height="70" as="geometry"/>
                </mxCell>
                <mxCell id="179" value="&lt;h4 id=&quot;wmsstockshelvedownsupplygoods-从备货区下架补货货品&quot; style=&quot;box-sizing: border-box ; margin-top: 24px ; margin-bottom: 16px ; font-size: 1.25em ; line-height: 1.25 ; color: rgb(36 , 41 , 46)&quot;&gt;wms.StockShelve.downSupplyGoods&lt;/h4&gt;&lt;span style=&quot;color: rgb(36 , 41 , 46) ; font-size: 1.25em&quot;&gt;从备货区下架补货货品&lt;/span&gt;" style="whiteSpace=wrap;html=1;rounded=0;sketch=0;" parent="24" vertex="1">
                    <mxGeometry x="22.5" y="410" width="355" height="80" as="geometry"/>
                </mxCell>
                <mxCell id="180" value="" style="edgeStyle=orthogonalEdgeStyle;rounded=0;orthogonalLoop=1;jettySize=auto;html=1;" parent="24" source="177" target="179" edge="1">
                    <mxGeometry relative="1" as="geometry"/>
                </mxCell>
                <mxCell id="181" value="&lt;h4 id=&quot;wmsstockshelveupsupplygoods&quot; style=&quot;box-sizing: border-box ; margin-top: 24px ; margin-bottom: 16px ; font-size: 1.25em ; line-height: 1.25 ; color: rgb(36 , 41 , 46) ; font-family: , &amp;#34;blinkmacsystemfont&amp;#34; , , &amp;#34;pingfang sc&amp;#34; , &amp;#34;helvetica&amp;#34; , &amp;#34;arial&amp;#34; , &amp;#34;hiragino sans gb&amp;#34; , &amp;#34;microsoft yahei&amp;#34; , &amp;#34;simsun&amp;#34; , , &amp;#34;heiti&amp;#34; , , sans-serif&quot;&gt;wms.StockShelve.upSupplyGoods&lt;/h4&gt;&lt;div&gt;&lt;h4 id=&quot;上架补货货品&quot; style=&quot;box-sizing: border-box ; margin-top: 24px ; margin-bottom: 16px ; font-size: 1.25em ; line-height: 1.25 ; color: rgb(36 , 41 , 46) ; font-family: , &amp;#34;blinkmacsystemfont&amp;#34; , , &amp;#34;pingfang sc&amp;#34; , &amp;#34;helvetica&amp;#34; , &amp;#34;arial&amp;#34; , &amp;#34;hiragino sans gb&amp;#34; , &amp;#34;microsoft yahei&amp;#34; , &amp;#34;simsun&amp;#34; , , &amp;#34;heiti&amp;#34; , , sans-serif&quot;&gt;上架补货货品&lt;/h4&gt;&lt;/div&gt;" style="whiteSpace=wrap;html=1;rounded=0;sketch=0;" parent="24" vertex="1">
                    <mxGeometry x="50" y="580" width="340" height="110" as="geometry"/>
                </mxCell>
                <mxCell id="183" value="&lt;h3 id=&quot;wmsstockshelvechecksupplyorder-审核补货单上架&quot; style=&quot;box-sizing: border-box ; margin-top: 24px ; margin-bottom: 16px ; font-size: 1.5em ; line-height: 1.25 ; color: rgb(36 , 41 , 46) ; font-family: , &amp;#34;blinkmacsystemfont&amp;#34; , , &amp;#34;pingfang sc&amp;#34; , &amp;#34;helvetica&amp;#34; , &amp;#34;arial&amp;#34; , &amp;#34;hiragino sans gb&amp;#34; , &amp;#34;microsoft yahei&amp;#34; , &amp;#34;simsun&amp;#34; , , &amp;#34;heiti&amp;#34; , , sans-serif&quot;&gt;wms.StockShelve.checkSupplyOrder&lt;/h3&gt;&lt;div&gt;&lt;h3 id=&quot;wmsstockshelvechecksupplyorder-审核补货单上架&quot; style=&quot;box-sizing: border-box ; margin-top: 24px ; margin-bottom: 16px ; font-size: 1.5em ; line-height: 1.25 ; color: rgb(36 , 41 , 46) ; font-family: , &amp;#34;blinkmacsystemfont&amp;#34; , , &amp;#34;pingfang sc&amp;#34; , &amp;#34;helvetica&amp;#34; , &amp;#34;arial&amp;#34; , &amp;#34;hiragino sans gb&amp;#34; , &amp;#34;microsoft yahei&amp;#34; , &amp;#34;simsun&amp;#34; , , &amp;#34;heiti&amp;#34; , , sans-serif&quot;&gt;审核补货单&lt;/h3&gt;&lt;/div&gt;" style="whiteSpace=wrap;html=1;rounded=0;sketch=0;" parent="24" vertex="1">
                    <mxGeometry x="50" y="780" width="330" height="80" as="geometry"/>
                </mxCell>
                <mxCell id="184" value="" style="edgeStyle=orthogonalEdgeStyle;rounded=0;orthogonalLoop=1;jettySize=auto;html=1;" parent="24" source="181" target="183" edge="1">
                    <mxGeometry relative="1" as="geometry"/>
                </mxCell>
                <mxCell id="185" value="&lt;h3 id=&quot;wmsstockshelvepartbacksupplyorder-补货剩余放回放回剩余的上架货品&quot; style=&quot;box-sizing: border-box ; margin-top: 24px ; margin-bottom: 16px ; font-size: 1.5em ; line-height: 1.25 ; color: rgb(36 , 41 , 46) ; font-family: , &amp;#34;blinkmacsystemfont&amp;#34; , , &amp;#34;pingfang sc&amp;#34; , &amp;#34;helvetica&amp;#34; , &amp;#34;arial&amp;#34; , &amp;#34;hiragino sans gb&amp;#34; , &amp;#34;microsoft yahei&amp;#34; , &amp;#34;simsun&amp;#34; , , &amp;#34;heiti&amp;#34; , , sans-serif&quot;&gt;wms.StockShelve.partBackSupplyOrder&lt;/h3&gt;&lt;div&gt;&lt;h3 id=&quot;wmsstockshelvepartbacksupplyorder-补货剩余放回放回剩余的上架货品&quot; style=&quot;box-sizing: border-box ; margin-top: 24px ; margin-bottom: 16px ; font-size: 1.5em ; line-height: 1.25 ; color: rgb(36 , 41 , 46) ; font-family: , &amp;#34;blinkmacsystemfont&amp;#34; , , &amp;#34;pingfang sc&amp;#34; , &amp;#34;helvetica&amp;#34; , &amp;#34;arial&amp;#34; , &amp;#34;hiragino sans gb&amp;#34; , &amp;#34;microsoft yahei&amp;#34; , &amp;#34;simsun&amp;#34; , , &amp;#34;heiti&amp;#34; , , sans-serif&quot;&gt;补货剩余放回&lt;/h3&gt;&lt;/div&gt;" style="whiteSpace=wrap;html=1;rounded=0;sketch=0;" parent="24" vertex="1">
                    <mxGeometry x="40" y="920" width="360" height="90" as="geometry"/>
                </mxCell>
                <mxCell id="186" value="" style="edgeStyle=orthogonalEdgeStyle;rounded=0;orthogonalLoop=1;jettySize=auto;html=1;" parent="24" source="183" target="185" edge="1">
                    <mxGeometry relative="1" as="geometry"/>
                </mxCell>
                <mxCell id="77e6c97f196da883-4" value="关键表信息" style="swimlane;html=1;startSize=20;" parent="77e6c97f196da883-1" vertex="1">
                    <mxGeometry x="1500" y="30" width="380" height="1910" as="geometry"/>
                </mxCell>
                <mxCell id="17" value="&lt;pre style=&quot;color: rgb(169, 183, 198); font-family: &amp;quot;jetbrains mono&amp;quot;, monospace; font-size: 10.5pt;&quot;&gt;&lt;span style=&quot;color: #6a8759&quot;&gt;stock_goods_default_position&lt;/span&gt;&lt;/pre&gt;" style="rounded=0;whiteSpace=wrap;html=1;labelBackgroundColor=none;sketch=0;" parent="77e6c97f196da883-4" vertex="1">
                    <mxGeometry x="50" y="170" width="310" height="60" as="geometry"/>
                </mxCell>
                <mxCell id="187" value="stock_supply_order&lt;br&gt;stock_supply_order_detail" style="whiteSpace=wrap;html=1;rounded=0;sketch=0;" parent="77e6c97f196da883-4" vertex="1">
                    <mxGeometry x="40" y="420" width="320" height="60" as="geometry"/>
                </mxCell>
                <mxCell id="31" style="edgeStyle=orthogonalEdgeStyle;curved=0;rounded=1;sketch=0;orthogonalLoop=1;jettySize=auto;html=1;exitX=1;exitY=0.5;exitDx=0;exitDy=0;fontSize=1;entryX=0;entryY=0.5;entryDx=0;entryDy=0;" parent="77e6c97f196da883-1" source="6" target="61" edge="1">
                    <mxGeometry relative="1" as="geometry">
                        <mxPoint x="558" y="225" as="targetPoint"/>
                    </mxGeometry>
                </mxCell>
                <mxCell id="123" style="edgeStyle=orthogonalEdgeStyle;curved=0;rounded=1;sketch=0;orthogonalLoop=1;jettySize=auto;html=1;exitX=1;exitY=0.5;exitDx=0;exitDy=0;entryX=0;entryY=0.5;entryDx=0;entryDy=0;fontSize=10;" parent="77e6c97f196da883-1" source="121" target="6" edge="1">
                    <mxGeometry relative="1" as="geometry"/>
                </mxCell>
                <mxCell id="126" value="通过选择备货区拣货区" style="edgeLabel;html=1;align=center;verticalAlign=middle;resizable=0;points=[];fontSize=10;" parent="123" vertex="1" connectable="0">
                    <mxGeometry x="-0.54" y="-1" relative="1" as="geometry">
                        <mxPoint as="offset"/>
                    </mxGeometry>
                </mxCell>
                <mxCell id="125" style="edgeStyle=orthogonalEdgeStyle;curved=0;rounded=1;sketch=0;orthogonalLoop=1;jettySize=auto;html=1;exitX=1;exitY=0.5;exitDx=0;exitDy=0;entryX=0;entryY=0.5;entryDx=0;entryDy=0;fontSize=10;" parent="77e6c97f196da883-1" source="119" target="6" edge="1">
                    <mxGeometry relative="1" as="geometry"/>
                </mxCell>
                <mxCell id="128" value="通过扫描默认货位" style="edgeLabel;html=1;align=center;verticalAlign=middle;resizable=0;points=[];fontSize=10;" parent="125" vertex="1" connectable="0">
                    <mxGeometry x="-0.5515" y="3" relative="1" as="geometry">
                        <mxPoint as="offset"/>
                    </mxGeometry>
                </mxCell>
                <mxCell id="130" value="" style="edgeStyle=orthogonalEdgeStyle;curved=0;rounded=1;sketch=0;orthogonalLoop=1;jettySize=auto;html=1;fontSize=10;" parent="77e6c97f196da883-1" source="63" target="129" edge="1">
                    <mxGeometry relative="1" as="geometry"/>
                </mxCell>
                <mxCell id="175" style="edgeStyle=orthogonalEdgeStyle;rounded=0;orthogonalLoop=1;jettySize=auto;html=1;" parent="77e6c97f196da883-1" source="29" target="17" edge="1">
                    <mxGeometry relative="1" as="geometry"/>
                </mxCell>
                <mxCell id="176" style="edgeStyle=orthogonalEdgeStyle;rounded=0;orthogonalLoop=1;jettySize=auto;html=1;exitX=1;exitY=0.5;exitDx=0;exitDy=0;entryX=0;entryY=0.5;entryDx=0;entryDy=0;" parent="77e6c97f196da883-1" source="61" target="29" edge="1">
                    <mxGeometry relative="1" as="geometry"/>
                </mxCell>
                <mxCell id="178" value="" style="edgeStyle=orthogonalEdgeStyle;rounded=0;orthogonalLoop=1;jettySize=auto;html=1;" parent="77e6c97f196da883-1" source="63" target="177" edge="1">
                    <mxGeometry relative="1" as="geometry">
                        <Array as="points">
                            <mxPoint x="850" y="420"/>
                            <mxPoint x="850" y="310"/>
                            <mxPoint x="1290" y="310"/>
                        </Array>
                    </mxGeometry>
                </mxCell>
                <mxCell id="188" value="" style="edgeStyle=orthogonalEdgeStyle;rounded=0;orthogonalLoop=1;jettySize=auto;html=1;" parent="77e6c97f196da883-1" source="179" target="187" edge="1">
                    <mxGeometry relative="1" as="geometry"/>
                </mxCell>
                <mxCell id="189" style="edgeStyle=orthogonalEdgeStyle;rounded=0;orthogonalLoop=1;jettySize=auto;html=1;exitX=1;exitY=0.5;exitDx=0;exitDy=0;entryX=0.5;entryY=1;entryDx=0;entryDy=0;" parent="77e6c97f196da883-1" source="181" target="187" edge="1">
                    <mxGeometry relative="1" as="geometry"/>
                </mxCell>
                <mxCell id="124" style="edgeStyle=orthogonalEdgeStyle;curved=0;rounded=1;sketch=0;orthogonalLoop=1;jettySize=auto;html=1;exitX=1;exitY=0.5;exitDx=0;exitDy=0;fontSize=10;" parent="1" source="120" edge="1">
                    <mxGeometry relative="1" as="geometry">
                        <mxPoint x="670" y="280" as="targetPoint"/>
                    </mxGeometry>
                </mxCell>
                <mxCell id="127" value="通过预补任务" style="edgeLabel;html=1;align=center;verticalAlign=middle;resizable=0;points=[];fontSize=10;" parent="124" vertex="1" connectable="0">
                    <mxGeometry x="-0.4103" relative="1" as="geometry">
                        <mxPoint as="offset"/>
                    </mxGeometry>
                </mxCell>
                <mxCell id="146" value="" style="edgeStyle=orthogonalEdgeStyle;curved=0;rounded=1;sketch=0;orthogonalLoop=1;jettySize=auto;html=1;fontSize=10;" parent="1" source="143" target="145" edge="1">
                    <mxGeometry relative="1" as="geometry"/>
                </mxCell>
                <mxCell id="156" value="" style="edgeStyle=orthogonalEdgeStyle;curved=0;rounded=1;sketch=0;orthogonalLoop=1;jettySize=auto;html=1;fontSize=10;" parent="1" source="143" target="155" edge="1">
                    <mxGeometry relative="1" as="geometry"/>
                </mxCell>
                <mxCell id="182" value="" style="edgeStyle=orthogonalEdgeStyle;rounded=0;orthogonalLoop=1;jettySize=auto;html=1;" parent="1" source="143" target="181" edge="1">
                    <mxGeometry relative="1" as="geometry"/>
                </mxCell>
                <mxCell id="143" value="&lt;h3 id=&quot;上架货品操作&quot; style=&quot;box-sizing: border-box ; margin-top: 24px ; margin-bottom: 16px ; font-size: 1.5em ; line-height: 1.25 ; color: rgb(36 , 41 , 46) ; font-family: , &amp;#34;blinkmacsystemfont&amp;#34; , , &amp;#34;pingfang sc&amp;#34; , &amp;#34;helvetica&amp;#34; , &amp;#34;arial&amp;#34; , &amp;#34;hiragino sans gb&amp;#34; , &amp;#34;microsoft yahei&amp;#34; , &amp;#34;simsun&amp;#34; , , &amp;#34;heiti&amp;#34; , , sans-serif&quot;&gt;上架货品操作&lt;/h3&gt;" style="whiteSpace=wrap;html=1;rounded=0;sketch=0;" parent="1" vertex="1">
                    <mxGeometry x="690" y="590" width="120" height="60" as="geometry"/>
                </mxCell>
                <mxCell id="144" value="" style="edgeStyle=orthogonalEdgeStyle;curved=0;rounded=1;sketch=0;orthogonalLoop=1;jettySize=auto;html=1;fontSize=10;" parent="1" source="63" target="143" edge="1">
                    <mxGeometry relative="1" as="geometry">
                        <Array as="points">
                            <mxPoint x="750" y="530"/>
                            <mxPoint x="750" y="530"/>
                        </Array>
                    </mxGeometry>
                </mxCell>
                <mxCell id="158" value="" style="edgeStyle=orthogonalEdgeStyle;curved=0;rounded=1;sketch=0;orthogonalLoop=1;jettySize=auto;html=1;fontSize=10;" parent="1" source="155" target="157" edge="1">
                    <mxGeometry relative="1" as="geometry">
                        <Array as="points">
                            <mxPoint x="680" y="760"/>
                            <mxPoint x="680" y="830"/>
                            <mxPoint x="360" y="830"/>
                            <mxPoint x="360" y="1060"/>
                            <mxPoint x="205" y="1060"/>
                        </Array>
                    </mxGeometry>
                </mxCell>
                <mxCell id="162" value="" style="edgeStyle=orthogonalEdgeStyle;curved=0;rounded=1;sketch=0;orthogonalLoop=1;jettySize=auto;html=1;fontSize=10;" parent="1" source="155" target="161" edge="1">
                    <mxGeometry relative="1" as="geometry"/>
                </mxCell>
                <mxCell id="155" value="&lt;h3 id=&quot;wmsstockshelvechecksupplyorder-审核补货单上架&quot; style=&quot;box-sizing: border-box ; margin-top: 24px ; margin-bottom: 16px ; font-size: 1.5em ; line-height: 1.25 ; color: rgb(36 , 41 , 46) ; font-family: , &amp;#34;blinkmacsystemfont&amp;#34; , , &amp;#34;pingfang sc&amp;#34; , &amp;#34;helvetica&amp;#34; , &amp;#34;arial&amp;#34; , &amp;#34;hiragino sans gb&amp;#34; , &amp;#34;microsoft yahei&amp;#34; , &amp;#34;simsun&amp;#34; , , &amp;#34;heiti&amp;#34; , , sans-serif&quot;&gt;审核补货单&lt;/h3&gt;" style="whiteSpace=wrap;html=1;rounded=0;sketch=0;" parent="1" vertex="1">
                    <mxGeometry x="690" y="730" width="120" height="60" as="geometry"/>
                </mxCell>
                <mxCell id="164" value="" style="edgeStyle=orthogonalEdgeStyle;curved=0;rounded=1;sketch=0;orthogonalLoop=1;jettySize=auto;html=1;fontSize=10;" parent="1" source="161" target="163" edge="1">
                    <mxGeometry relative="1" as="geometry">
                        <Array as="points">
                            <mxPoint x="540" y="900"/>
                            <mxPoint x="540" y="1320"/>
                            <mxPoint x="455" y="1320"/>
                        </Array>
                    </mxGeometry>
                </mxCell>
                <mxCell id="174" value="" style="edgeStyle=orthogonalEdgeStyle;curved=0;rounded=1;sketch=0;orthogonalLoop=1;jettySize=auto;html=1;fontSize=10;" parent="1" source="161" target="173" edge="1">
                    <mxGeometry relative="1" as="geometry"/>
                </mxCell>
                <mxCell id="161" value="&lt;h3 id=&quot;wmsstockshelvepartbacksupplyorder-补货剩余放回放回剩余的上架货品&quot; style=&quot;box-sizing: border-box ; margin-top: 24px ; margin-bottom: 16px ; font-size: 1.5em ; line-height: 1.25 ; color: rgb(36 , 41 , 46) ; font-family: , &amp;#34;blinkmacsystemfont&amp;#34; , , &amp;#34;pingfang sc&amp;#34; , &amp;#34;helvetica&amp;#34; , &amp;#34;arial&amp;#34; , &amp;#34;hiragino sans gb&amp;#34; , &amp;#34;microsoft yahei&amp;#34; , &amp;#34;simsun&amp;#34; , , &amp;#34;heiti&amp;#34; , , sans-serif&quot;&gt;补货剩余放回&lt;/h3&gt;" style="whiteSpace=wrap;html=1;rounded=0;sketch=0;" parent="1" vertex="1">
                    <mxGeometry x="690" y="870" width="120" height="60" as="geometry"/>
                </mxCell>
                <mxCell id="173" value="&lt;b style=&quot;font-size: 22px;&quot;&gt;&lt;font style=&quot;font-size: 22px;&quot;&gt;结束&lt;/font&gt;&lt;/b&gt;" style="ellipse;whiteSpace=wrap;html=1;rounded=0;sketch=0;fontSize=22;" parent="1" vertex="1">
                    <mxGeometry x="690" y="1000" width="120" height="80" as="geometry"/>
                </mxCell>
                <mxCell id="190" style="edgeStyle=orthogonalEdgeStyle;rounded=0;orthogonalLoop=1;jettySize=auto;html=1;" parent="1" source="183" edge="1">
                    <mxGeometry relative="1" as="geometry">
                        <mxPoint x="1770" y="580" as="targetPoint"/>
                    </mxGeometry>
                </mxCell>
                <mxCell id="191" style="edgeStyle=orthogonalEdgeStyle;rounded=0;orthogonalLoop=1;jettySize=auto;html=1;" parent="1" source="185" edge="1">
                    <mxGeometry relative="1" as="geometry">
                        <mxPoint x="1770" y="570" as="targetPoint"/>
                    </mxGeometry>
                </mxCell>
            </root>
        </mxGraphModel>
    </diagram>
</mxfile>